<?xml version="1.0" encoding="UTF-8" standalone="no"?>
<!DOCTYPE svg PUBLIC "-//W3C//DTD SVG 1.1//EN" "http://www.w3.org/Graphics/SVG/1.1/DTD/svg11.dtd">
<svg width="100%" height="100%" viewBox="0 0 39 39" version="1.1" xmlns="http://www.w3.org/2000/svg" xmlns:xlink="http://www.w3.org/1999/xlink" xml:space="preserve" xmlns:serif="http://www.serif.com/" style="fill-rule:evenodd;clip-rule:evenodd;stroke-linejoin:round;stroke-miterlimit:2;">
    <path id="iconmonstr-facebook-6" d="M36.741,0L2.147,0C2.147,-0 2.146,-0 2.146,-0C0.969,-0 -0,0.969 -0,2.146C-0,2.146 -0,2.147 0,2.147L0,36.747C0.001,37.924 0.969,38.892 2.146,38.892C2.146,38.892 2.147,38.892 2.147,38.892L20.773,38.892L20.773,23.829L15.7,23.829L15.7,17.96L20.768,17.96L20.768,13.632C20.768,8.609 23.835,5.874 28.317,5.874C29.83,5.869 31.342,5.946 32.846,6.106L32.846,11.356L29.738,11.356C27.301,11.356 26.829,12.515 26.829,14.213L26.829,17.961L32.641,17.961L31.89,23.83L26.834,23.83L26.834,38.888L36.744,38.888C37.921,38.887 38.889,37.918 38.888,36.741L38.888,2.147C38.888,2.147 38.888,2.146 38.888,2.146C38.888,0.969 37.919,-0 36.742,-0C36.742,-0 36.741,-0 36.741,0Z" style="fill:white;fill-rule:nonzero;"/>
</svg>
