<?xml version="1.0" encoding="UTF-8" standalone="no"?>
<!DOCTYPE svg PUBLIC "-//W3C//DTD SVG 1.1//EN" "http://www.w3.org/Graphics/SVG/1.1/DTD/svg11.dtd">
<svg width="100%" height="100%" viewBox="0 0 39 39" version="1.1" xmlns="http://www.w3.org/2000/svg" xmlns:xlink="http://www.w3.org/1999/xlink" xml:space="preserve" xmlns:serif="http://www.serif.com/" style="fill-rule:evenodd;clip-rule:evenodd;stroke-linejoin:round;stroke-miterlimit:2;">
    <path id="iconmonstr-twitter-4" d="M19.444,0C8.777,0 -0,8.777 -0,19.444C-0,30.111 8.777,38.888 19.444,38.888C30.111,38.888 38.888,30.111 38.888,19.444C38.887,8.778 30.11,0.001 19.444,0ZM29.273,15.628C29.282,15.831 29.287,16.035 29.287,16.238C29.287,23.498 23.313,29.472 16.053,29.472C13.522,29.472 11.043,28.746 8.912,27.38C11.372,27.675 13.852,26.981 15.802,25.453C13.816,25.414 12.062,24.111 11.453,22.22C12.15,22.354 12.868,22.327 13.553,22.141C11.369,21.697 9.794,19.746 9.82,17.518C10.466,17.877 11.189,18.077 11.928,18.1C9.895,16.741 9.261,14.001 10.488,11.886C12.85,14.793 16.34,16.562 20.08,16.749C19.998,16.4 19.957,16.043 19.957,15.685C19.957,13.129 22.059,11.027 24.615,11.027C25.902,11.027 27.134,11.56 28.014,12.5C29.056,12.296 30.056,11.914 30.969,11.371C30.622,12.449 29.894,13.364 28.923,13.946C29.845,13.836 30.746,13.589 31.595,13.212C30.973,14.151 30.186,14.969 29.273,15.628Z" style="fill:white;fill-rule:nonzero;"/>
</svg>
